<?xml version="1.0" standalone="no"?><!DOCTYPE svg PUBLIC "-//W3C//DTD SVG 1.1//EN" "http://www.w3.org/Graphics/SVG/1.1/DTD/svg11.dtd"><svg t="1607061793725" class="icon" viewBox="0 0 1024 1024" version="1.1" xmlns="http://www.w3.org/2000/svg" p-id="13667" xmlns:xlink="http://www.w3.org/1999/xlink" width="200" height="200"><defs><style type="text/css"></style></defs><path d="M758.9888 270.592c-7.0656-27.136-17.7664-50.944-33.0752-69.4784-5.0688-5.9392-10.6496-11.4176-16.8448-16.64-12.3392-9.8816-26.8288-17.2544-43.9296-21.3504 0 0-153.5488-30.464-301.9776 0-13.056 2.6624-24.6784 6.912-35.072 12.4416-29.952 21.9136-48.5376 46.6432-60.1088 90.3168-11.52 43.7248-0.9728 158.6176 23.808 264.2432 11.4688 48.9472 9.6256 112.4352 3.8912 169.0112 5.8368 34.4576 9.984 60.928 10.3936 67.9424 1.28 21.5552 11.4176 108.4928 63.4368 108.4928 0 0 32.512 9.8816 65.1264-25.856 9.4208-12.032 18.432-27.648 24.9856-35.4816 6.2464-7.4752 32.9216-33.7408 39.168-43.9808-35.2768-4.7104-54.3232-37.376-65.2288-60.2624-11.7248-24.7296-5.5808-43.7248-3.1744-47.2576 0 0 9.3184-23.4496 77.1584-23.4496 49.1008 0 65.8944 12.3904 70.3488 18.0736 4.4544 5.7344 14.8992 25.0368 2.56 48.8448-11.1104 21.2992-27.9552 56.2688-60.8256 63.3344l0.0512 0.1024s13.4144 16.64 18.8928 22.8352c5.4784 6.1952 17.2544 18.5856 27.0336 35.9424 6.8608 10.0352 22.016 30.6176 40.8064 40.3456 10.9568 4.7104 21.9648 7.7824 37.1712 6.8608 57.088 0 74.24-140.8512 78.0288-171.9296 0.4608-3.7888 2.9184-14.08 6.4512-29.184-3.7888-49.8176-3.7376-102.4 6.0928-144.3328 23.8592-102.0928 34.56-212.7872 24.832-259.584z" fill="#FFA725" p-id="13668"></path><path d="M260.352 191.3344S73.8304 389.2736 54.784 405.4528s-35.2256 49.5104-13.312 82.7904 76.1344 157.952 86.5792 180.8384 39.0144 87.552 70.4 111.36 45.6704 43.3152 50.432 54.7328c4.7616 11.4176 19.968 26.1632 25.2416 0 5.2224-26.1632 42.3424-199.3728 17.6128-304.9984s-35.328-220.5184-23.808-264.2432 30.1568-68.4032 60.16-90.368c-10.6496-4.1984-44.1856-9.1648-67.7376 15.7696z" fill="#FFA725" p-id="13669"></path><path d="M274.176 835.1232c5.2224-26.1632 42.3424-199.3728 17.6128-304.9984-24.7296-105.6256-35.328-220.5184-23.808-264.2432 2.048-7.68 4.3008-14.7968 6.8096-21.4016-14.4384 24.32-28.2624 69.632-24.8832 153.344 6.656 164.6592 28.5696 182.7328 20.9408 248.3712-7.6288 65.6896-21.0432 114.3296-21.4528 123.2896-0.4096 8.96-38.5024-14.848-51.8144-45.2608-13.312-30.464-47.5648-87.552-78.0288-131.328-30.4128-43.7248-67.84-80.7424-86.7328-124.0576 1.6384 6.3488 4.4032 12.8512 8.704 19.3536 21.9136 33.3312 76.1344 157.952 86.5792 180.8384 10.4448 22.8352 39.0144 87.552 70.4 111.36 31.3856 23.808 45.6704 43.3152 50.432 54.7328 4.7616 11.4176 19.968 26.1632 25.2416 0z" fill="#E28813" p-id="13670"></path><path d="M765.4912 191.3344s186.5216 197.9392 205.568 214.1184c19.0464 16.1792 35.2256 49.5104 13.312 82.7904-21.9136 33.3312-76.1344 157.952-86.5792 180.8384s-39.0144 87.552-70.4 111.36c-31.3856 23.808-45.6704 43.3152-50.432 54.7328-4.7616 11.4176-19.968 26.1632-25.2416 0-5.2224-26.1632-42.3424-199.3728-17.6128-304.9984 24.7296-105.6256 35.328-220.5184 23.808-264.2432s-30.1568-68.4032-60.16-90.368c10.6496-4.1984 44.2368-9.1648 67.7376 15.7696z" fill="#FFA725" p-id="13671"></path><path d="M751.6672 835.1232c-5.2224-26.1632-42.3424-199.3728-17.6128-304.9984 24.7296-105.6256 35.328-220.5184 23.808-264.2432-2.048-7.68-4.3008-14.7968-6.8096-21.4016 14.4384 24.32 28.2624 69.632 24.8832 153.344-6.656 164.6592-28.5696 182.7328-20.9408 248.3712 7.6288 65.6896 21.0432 114.3296 21.4528 123.2896 0.4096 8.96 38.5024-14.848 51.8144-45.2608 13.312-30.464 47.5648-87.552 78.0288-131.328 30.4128-43.7248 67.84-80.7424 86.7328-124.0576a63.7952 63.7952 0 0 1-8.704 19.3536c-21.9136 33.3312-76.1344 157.952-86.5792 180.8384-10.4448 22.8352-39.0144 87.552-70.4 111.36-31.3856 23.808-45.6704 43.3152-50.432 54.7328-4.7616 11.4176-20.0192 26.1632-25.2416 0z" fill="#E28813" p-id="13672"></path><path d="M590.2848 804.4544c-23.5008-29.7984-38.7072-62.8224-38.7072-62.8224s-0.4096 0.0512-1.1264 0.1024c-8.3968 8.3456-18.4832 14.9504-30.8224 17.5616l0.0512 0.1024s13.4144 16.64 18.8928 22.8352c5.4784 6.1952 17.2544 18.5856 27.0336 35.9424 6.8608 10.0352 22.016 30.6176 40.8064 40.3456 10.9568 4.7104 21.9648 7.7824 37.1712 6.8608 57.088 0 74.24-140.8512 78.0288-171.9296 0.4096-3.328 2.304-11.6224 5.1712-23.808-4.9664 7.7824-22.528 37.376-40.96 94.1568-21.8112 67.1232-72.0896 70.4512-95.5392 40.6528zM462.592 742.2976c-16.128 79.36-89.3952 94.4128-115.7632 62.1568-26.4704-32.3584-51.2-115.5072-51.2-115.5072 5.8368 34.4576 9.984 60.928 10.3936 67.9424 1.28 21.5552 11.4176 108.4928 63.4368 108.4928 0 0 32.512 9.8816 65.1264-25.856 9.4208-12.032 18.432-27.648 24.9856-35.4816 6.2464-7.4752 32.9216-33.7408 39.168-43.9808-14.6432-1.9968-26.5216-8.8576-36.1472-17.7664z" fill="#E28813" p-id="13673"></path><path d="M608.6656 546.304c-30.464-66.6112-73.2672-178.8928-71.3728-212.224 1.792-31.2832 36.352-76.5952 67.328-92.4672 1.9456-0.9728 1.4848-3.84-0.6656-4.1984-16.5888-2.6624-53.8112-2.1504-94.3104 29.8496-0.8704 0.6656-2.048 0.6656-2.8672-0.0512-15.5648-13.568-44.6464-32.5632-95.8976-28.9792-2.2528 0.1536-2.9696 3.1744-0.9728 4.2496 19.968 10.9568 76.3392 46.2336 69.2736 92.5696-8.5504 56.1664-47.5648 166.5536-76.1344 221.7472-25.1392 48.64-84.6848 165.2224-80.4352 282.0608 9.5232 20.3264 24.1664 36.5056 46.7968 36.7104 0 0 48.0256 11.4688 81.2032-48.8448 15.9232-25.1904 37.12-39.9872 48.0256-56.4736-35.2256-4.7616-54.272-37.376-65.1264-60.2624-11.7248-24.7296-5.5808-43.7248-3.1744-47.2576 0 0 9.3184-23.4496 77.1584-23.4496 49.1008 0 65.8944 12.3904 70.3488 18.0736 4.4544 5.7344 14.8992 25.0368 2.56 48.8448-11.1104 21.2992-27.9552 56.2688-60.8256 63.3344 3.6352 5.5808 8.3968 11.7248 14.848 18.4832 11.4176 12.032 24.7296 28.5696 29.7984 38.0416 5.0688 9.5232 36.1472 56.4736 79.3088 49.5104 21.2992-3.4304 37.4784-20.1216 49.0496-46.848-4.4544-60.5184-22.528-159.6416-83.9168-282.4192z" fill="#FFC476" p-id="13674"></path><path d="M690.3296 833.6896c0.1024-0.2048 0.1536-0.3584 0.256-0.5632 0.6656-1.4336 1.3312-2.8672 1.9968-4.4032-1.1776-15.7184-3.2768-34.048-6.8096-54.6816-21.8112 67.1232-72.0896 70.4512-95.5392 40.6528-23.4496-29.7984-38.7072-62.8224-38.7072-62.8224s-0.4096 0.0512-1.1264 0.1024c-0.1024 0.1024-0.256 0.2048-0.3584 0.3584-1.1264 1.1264-2.304 2.2016-3.5328 3.2256-0.4096 0.3584-0.8704 0.7168-1.28 1.0752-0.9728 0.8192-1.9968 1.5872-2.9696 2.3552-0.4608 0.3072-0.8704 0.6656-1.3312 0.9728-1.4336 1.024-2.9184 1.9968-4.4544 2.9184-0.0512 0.0512-0.1024 0.0512-0.1536 0.1024-1.4848 0.8704-3.0208 1.6384-4.5568 2.4064-0.512 0.256-0.9728 0.4608-1.4848 0.6656-1.2288 0.512-2.4576 1.024-3.7376 1.4848-0.512 0.2048-1.024 0.3584-1.536 0.5632-1.7408 0.5632-3.5328 1.0752-5.376 1.4848 0.0512 0.1024 0.1536 0.2048 0.2048 0.3072 1.536 1.8944 13.6192 16.8448 18.7392 22.6304l1.28 1.4336c4.3008 4.8128 11.2128 12.4416 18.2272 22.5792 2.56 3.584 4.7104 6.912 6.1952 9.6256 0.3072 0.5632 0.7168 1.28 1.2288 2.0992 0.0512 0.0512 0.0512 0.1024 0.1024 0.1536 0 0 0 0.0512 0.0512 0.0512 5.9392 8.704 18.176 25.344 33.536 35.9424 0.256 0.1536 0.512 0.3584 0.768 0.512 2.048 1.3824 4.1472 2.6112 6.2464 3.7376 0.1024 0.0512 0.1536 0.1024 0.256 0.1536 10.9056 4.7104 21.9136 7.7824 37.12 6.8096 19.9168-3.2768 35.3792-18.1248 46.7456-41.9328zM420.0448 862.8224c0.3072-0.2048 0.6144-0.4096 0.9216-0.6656 0.768-0.5632 1.536-1.1264 2.2528-1.7408 1.7408-1.3824 3.4816-2.8672 5.2224-4.4544l0.1024-0.1024c1.9968-1.8432 3.9936-3.8912 5.9904-6.0416 0.0512-0.0512 0.0512-0.1024 0.1024-0.1024 9.3696-12.032 18.3808-27.5968 24.9344-35.4304 0.3072-0.4096 0.7168-0.8704 1.1776-1.3312 13.9264-17.2032 29.2352-29.44 37.9392-42.6496h-0.0512c-1.9968-0.256-3.9424-0.6656-5.888-1.1264-0.6656-0.1536-1.28-0.3584-1.9456-0.512-1.2288-0.3584-2.4576-0.6656-3.6352-1.0752-0.768-0.256-1.536-0.5632-2.304-0.8192-0.9728-0.3584-1.9456-0.768-2.9184-1.1776-0.8704-0.3584-1.6896-0.768-2.5088-1.1776-0.768-0.3584-1.4848-0.768-2.2016-1.1776-0.9216-0.512-1.8944-1.024-2.7648-1.5872-0.2048-0.1024-0.4096-0.256-0.5632-0.3584-4.0448-2.5088-7.7824-5.4272-11.2128-8.6016l-0.0512-0.0512c-16.128 79.36-89.3952 94.4128-115.7632 62.1568-7.3216-8.96-14.5408-21.9136-21.1456-35.84-2.56 19.7632-3.7376 39.8848-3.0208 60.0064 1.0752 2.3552 2.304 4.6592 3.5328 6.8608 0.1024 0.2048 0.2048 0.4096 0.3072 0.5632 0.5632 0.9728 1.1264 1.8944 1.6896 2.816 0.1536 0.256 0.3072 0.5632 0.512 0.8192 0.6144 0.9728 1.2288 1.8944 1.8944 2.816l0.4096 0.5632 2.1504 2.9184c0.0512 0.0512 0.1024 0.1024 0.1024 0.1536 8.96 11.3664 20.736 19.0464 36.1984 19.1488 0-0.0512 24.4736 5.7856 50.5344-12.8z" fill="#F7AF59" p-id="13675"></path><path d="M301.2608 344.832a0.9728 0.9728 0 0 1-1.024-1.5872c5.888-6.2976 24.6272-31.8976 56.6272-31.1296 33.1264 0.768 41.6256 36.7616 44.0832 45.8752 0.256 0.9728-0.8704 1.6896-1.5872 0.9728-6.4512-5.9904-25.6512-22.016-45.7728-22.016-22.8864 0-38.4512 3.2768-52.3264 7.8848z" fill="#E28813" p-id="13676"></path><path d="M303.2064 434.2272s17.5616-9.2672 24.4224-16.64c6.8608-7.3728 17.5616-13.824 35.6864-11.4176s31.8464 21.4016 35.1232 37.376c1.0752 5.4784 3.0208 11.8784 5.4784 13.568-5.2224 2.1504-17.5616 4.7616-25.4976 9.7792-7.936 5.0176-39.4752 14.0288-52.9408-4.7616-13.5168-18.8416-16.2304-24.576-22.272-27.904z" fill="#EBD5D2" p-id="13677"></path><path d="M387.6352 389.6832c-14.7968 0.8192-24.5248 10.2912-29.2352 16.0256 2.56-0.1024 5.376 0.5632 8.2944 1.1264 14.336 3.0208 28.3136 20.1728 31.232 36.1472 0.9728 5.4784 2.7136 11.8784 4.9152 13.568-4.0448 1.8944-13.0048 4.096-19.9168 7.9872 14.1312 3.584 61.1328 12.3904 61.5424-21.2992 0.4608-38.6048-35.072-54.784-56.832-53.5552z" fill="#E28813" p-id="13678"></path><path d="M320.0512 439.552a35.6352 33.8944 0 1 0 71.2704 0 35.6352 33.8944 0 1 0-71.2704 0Z" fill="#5E331B" p-id="13679"></path><path d="M332.6976 436.224a22.9888 21.0944 0 1 0 45.9776 0 22.9888 21.0944 0 1 0-45.9776 0Z" fill="#220E00" p-id="13680"></path><path d="M346.5728 418.816a9.1136 6.7584 0 1 0 18.2272 0 9.1136 6.7584 0 1 0-18.2272 0Z" fill="#EBD5D2" p-id="13681"></path><path d="M714.1376 344.832c0.9728 0.3072 1.6896-0.8192 1.024-1.5872-5.888-6.2976-24.6272-31.8976-56.6272-31.1296-33.1264 0.768-41.6256 36.7616-44.0832 45.8752-0.256 0.9728 0.8704 1.6896 1.5872 0.9728 6.4512-5.9904 25.6512-22.016 45.7728-22.016 22.8352 0 38.4 3.2768 52.3264 7.8848z" fill="#E28813" p-id="13682"></path><path d="M712.192 434.2272s-17.5616-9.2672-24.4224-16.64-17.5616-13.824-35.6864-11.4176c-18.1248 2.3552-31.8464 21.4016-35.1232 37.376-1.0752 5.4784-3.0208 11.8784-5.4784 13.568 5.2224 2.1504 17.5616 4.7616 25.4976 9.7792 7.936 5.0176 39.4752 14.0288 52.9408-4.7616 13.5168-18.8416 16.2304-24.576 22.272-27.904z" fill="#EBD5D2" p-id="13683"></path><path d="M627.7632 389.6832c14.7968 0.8192 24.5248 10.2912 29.2352 16.0256-2.56-0.1024-5.376 0.5632-8.2944 1.1264-14.336 3.0208-28.3136 20.1728-31.232 36.1472-0.9728 5.4784-2.7136 11.8784-4.9152 13.568 4.0448 1.8944 13.0048 4.096 19.9168 7.9872-14.1312 3.584-61.1328 12.3904-61.5424-21.2992-0.4608-38.6048 35.0208-54.784 56.832-53.5552z" fill="#E28813" p-id="13684"></path><path d="M624.0768 439.552a35.6352 33.8944 0 1 0 71.2704 0 35.6352 33.8944 0 1 0-71.2704 0Z" fill="#5E331B" p-id="13685"></path><path d="M636.7232 436.224a22.9888 21.0944 0 1 0 45.9776 0 22.9888 21.0944 0 1 0-45.9776 0Z" fill="#220E00" p-id="13686"></path><path d="M650.5984 418.816a9.1136 6.7584 0 1 0 18.2272 0 9.1136 6.7584 0 1 0-18.2272 0Z" fill="#EBD5D2" p-id="13687"></path><path d="M564.2752 826.112c-5.0688-9.5232-18.3808-26.0096-29.7984-38.0416-6.4-6.7584-11.1616-12.9024-14.848-18.4832-3.84 0.8192-7.7824 1.3312-12.0832 1.3312-3.072 0-5.9904-0.256-8.8576-0.6656-10.9056 16.5376-32.0512 31.2832-48.0256 56.4736-12.1344 22.1184-26.3168 34.56-39.3728 41.472 24.576 16.3328 57.4464 26.9824 101.5808 25.4464 38.2464-1.3312 66.6624-12.1856 87.7056-27.6992 0 0 0.0512-0.2048 0.1024-0.512-19.968-12.9024-33.2288-33.3824-36.4032-39.3216z" fill="#E28813" p-id="13688"></path><path d="M585.984 651.0592c-5.1712-6.6048-23.1424-22.016-78.4384-22.016-67.4304 0-83.0976 22.3744-86.272 28.9792-3.9424 6.9632-10.1376 28.6208 3.0208 56.3712 7.8336 16.4864 31.6416 66.7648 83.2512 66.7648 45.6704 0 67.4816-42.1888 80.5376-67.4304l1.4336-2.816c16.7424-32.2048-1.3824-57.1392-3.5328-59.8528z" fill="#311F1B" p-id="13689"></path><path d="M457.7792 682.5472a48.6912 22.528 0 1 0 97.3824 0 48.6912 22.528 0 1 0-97.3824 0Z" fill="#443735" p-id="13690"></path><path d="M977.7152 397.6704c-14.6944-12.4928-140.3392-145.0496-204.7488-213.3504-23.0912-24.4736-56.6784-25.1392-75.2128-19.5584-9.4208-5.12-19.6608-9.0112-30.6176-11.6736-6.3488-1.28-157.2864-30.5152-306.0224 0-11.9296 2.4576-23.2448 6.3488-33.6896 11.4688-18.688-5.376-51.712-4.4032-74.496 19.7632C188.5184 252.6208 62.8736 385.1264 48.1792 397.6704 23.9104 418.304 8.8064 457.1648 32.9216 493.8752c17.8176 27.0848 59.5456 120.576 77.3632 160.512 3.7888 8.5504 6.7584 15.1552 8.4992 18.944l1.536 3.328c11.9808 26.2144 39.9872 87.6544 72.0384 111.9232 35.4304 26.8288 45.056 45.4656 47.1552 50.4832 4.3008 10.2912 13.6704 20.8896 24.576 20.8896 0.5632 0 1.0752-0.0512 1.6384-0.1024 6.5024-0.6656 14.9504-5.12 18.4832-22.7328l0.768-3.84c4.3008-21.0944 7.9872-41.4208 11.1616-61.1328 1.9968 23.3472 13.3632 112.3328 72.0384 113.6128 2.2016 0.512 6.5024 1.2288 12.2368 1.2288 7.936 0 18.7392-1.4848 30.72-7.0144 26.2144 15.872 57.5488 24.0128 93.4912 24.0128 2.8672 0 5.7856-0.0512 8.704-0.1536 34.5088-1.2288 64.1024-10.0864 88.1664-26.1632 0.0512 0.0512 0.1024 0.0512 0.2048 0.1024 0.2048 0.1024 0.4608 0.2048 0.6656 0.3072 10.2912 4.4032 23.1936 8.7552 41.5744 7.68 38.2976-0.256 65.7408-47.1552 81.8176-139.6736 3.9424 27.5456 8.96 56.6272 15.1552 87.1424l0.768 3.8912c3.5328 17.664 12.032 22.1184 18.4832 22.7328 0.5632 0.0512 1.0752 0.1024 1.6384 0.1024 10.8544 0 20.2752-10.5984 24.576-20.8896 2.0992-5.0688 11.7248-23.6544 47.1552-50.4832 32.0512-24.2688 60.0576-85.7088 72.0384-111.9232l1.536-3.328c1.7408-3.7888 4.7104-10.3936 8.4992-18.944 17.8176-39.936 59.5456-133.4272 77.3632-160.512 24.1152-36.7104 8.96-75.6224-15.2576-96.2048zM264.9088 829.2352l-0.768 3.8912c-0.4096 2.1504-0.8704 3.7376-1.28 4.8128-1.4848-1.536-3.2256-3.8912-4.4032-6.7584-4.1472-9.984-16.64-30.8736-53.7088-58.9312-27.9552-21.1456-55.3984-81.408-65.7408-104.0896l-1.536-3.3792c-1.7408-3.7888-4.6592-10.2912-8.3968-18.7392-19.5584-43.776-60.2112-134.912-78.9504-163.4304-19.968-30.208-2.2528-57.8048 11.3152-69.376 19.2512-16.3328 198.7072-206.7456 206.3872-214.8864 10.9568-11.5712 24.576-15.3088 35.84-15.872l-0.768 0.768c-2.2016 2.0992-4.352 4.2496-6.4 6.4512-0.4608 0.4608-0.9216 0.9216-1.3312 1.4336-2.2016 2.4064-4.3008 4.864-6.2976 7.3728-0.4608 0.5632-0.9216 1.1776-1.3312 1.7408-1.9456 2.5088-3.7888 5.0176-5.5296 7.6288a2.816 2.816 0 0 1-0.3584 0.4608c-1.8432 2.7136-3.5328 5.5296-5.1712 8.448-0.3584 0.6656-0.768 1.3312-1.1264 1.9968-1.5872 2.8672-3.1232 5.7856-4.5568 8.8064-0.256 0.512-0.4608 1.0752-0.7168 1.5872-1.28 2.816-2.5088 5.6832-3.6864 8.6528-0.256 0.5632-0.4608 1.1776-0.7168 1.7408-1.28 3.2768-2.4576 6.656-3.584 10.1376-0.256 0.768-0.512 1.5872-0.768 2.3552-1.1264 3.6352-2.2528 7.3216-3.2768 11.1616-8.0896 30.6176-5.9392 93.952 4.2496 165.5296 4.8128 33.5872 11.3664 69.0176 19.456 103.68 0.0512 0.1536 0.0512 0.3072 0.1024 0.4608 0.8192 3.5328 1.536 7.168 2.2528 10.9568 0.1024 0.6144 0.256 1.28 0.3584 1.8944 11.4176 64.8192 4.608 164.5568-19.5584 283.4944z m247.6544 54.1696c-31.2832 1.0752-58.8288-4.2496-81.92-15.8208 0.0512-0.0512 0.1024-0.1024 0.2048-0.1536 2.4576-1.9968 4.864-4.1984 7.3216-6.656 0.4608-0.4608 0.9216-0.9216 1.3312-1.3824 0.8704-0.9216 1.7408-1.792 2.6112-2.7136 0.2048-0.2048 0.3584-0.4096 0.512-0.6144l0.8192-1.1264c5.8368-6.7072 11.2128-14.2848 16.0256-22.9888 2.8672-4.5056 5.9904-8.6016 9.1648-12.544 2.2016-2.4576 5.8368-6.2976 9.6768-10.3936 10.8032-11.3664 19.7632-20.9408 25.2928-28.0576 3.84 0.2048 7.424 0.1024 11.264-0.3072 3.5328 4.8128 7.5264 9.5232 12.0832 14.3872 1.3312 1.3824 2.6624 2.8672 3.9936 4.3008l1.8944 2.0992c0.0512 0.0512 0.0512 0.1024 0.1024 0.1024 5.9392 6.656 11.52 13.568 15.8208 19.5072 2.6624 3.7888 5.3248 7.8336 7.8336 12.3392 0 0 0 0.0512 0.0512 0.0512 4.608 7.7824 13.9264 20.5824 26.5728 31.5904-19.5584 11.264-43.264 17.4592-70.656 18.3808z m-73.728-214.8864c0.6144-0.8704 0.7168-0.8704 0.9728-1.6896 1.4848-2.1504 13.9776-17.3056 67.7376-17.3056 50.688 0 61.7984 13.568 62.2592 14.1312 0.512 0.6656 12.5952 16.5888 1.536 37.8368l-1.3824 2.6624c-10.24 19.7632-25.7024 49.664-52.5312 55.3984-6.0928 1.28-10.7008 1.4848-17.3568 0.5632-30.0544-4.096-47.0528-33.024-57.2416-54.4768-10.5472-22.2208-3.9424-37.12-3.9936-37.12z m293.7344-179.9168c-0.5632 2.8672-1.1264 5.6832-1.7408 8.5504-0.1024 0.4608-0.2048 0.9216-0.3072 1.4336-0.5632 2.6624-1.1264 5.3248-1.6896 8.0384-0.1024 0.6144-0.256 1.1776-0.3584 1.792-0.5632 2.6624-1.1776 5.2736-1.7408 7.936-0.1536 0.6144-0.256 1.2288-0.4096 1.792-0.7168 3.2256-1.4848 6.4512-2.2016 9.6768-1.0752 4.5056-1.9968 9.1648-2.8672 13.9776l-0.6144 3.7376c-0.6144 3.7376-1.2288 7.5264-1.7408 11.4176l-0.4608 4.0448c-0.4608 4.0448-0.9216 8.192-1.28 12.4416-0.1024 1.1264-0.1536 2.304-0.256 3.4304-0.3584 4.7104-0.6656 9.5232-0.9216 14.4384-0.0512 0.768-0.0512 1.536-0.1024 2.304-0.256 5.5808-0.4096 11.3664-0.4608 17.2032v0.512c-0.2048 19.4048 0.512 40.192 2.2016 62.4128l-0.2048 0.8704c-3.7376 15.9232-5.5296 23.7056-6.0416 27.904-18.0224 146.8416-53.4528 162.7136-67.84 162.7136h-0.6656c-13.2096 0.8192-22.4256-1.7408-32.1536-5.888-1.3312-0.7168-2.8672-1.5872-4.4544-2.6112-1.6896-1.0752-3.2768-2.2528-4.864-3.4816-7.4752-5.8368-16.7424-15.2064-27.136-30.3104-0.3584-0.6144-0.768-1.28-1.024-1.7408-1.9456-3.6864-4.864-8.0384-8.192-12.5952-6.5536-9.1648-12.9024-16.3328-16.9472-20.8384l-1.8944-2.1504c-2.2528-2.56-5.9904-7.0144-9.5232-11.3152 26.7264-13.056 41.8304-42.24 51.456-60.8256l1.3824-2.6112c16.7424-32.2048-1.4336-57.1392-3.5328-59.8528-5.1712-6.6048-23.0912-22.016-78.4384-22.016-67.3792 0-83.0976 22.3744-86.272 28.9792-3.9424 6.9632-10.1376 28.6208 3.0208 56.3712 6.0928 12.8512 23.04 48.5376 56.4736 61.696-2.56 2.7648-5.3248 5.632-8.2944 8.6528-6.5536 6.7072-13.6704 14.0288-20.5312 22.6304-0.0512 0.0512-0.1536 0.2048-0.2048 0.256-3.6352 4.352-7.7312 10.496-12.0832 16.9984-4.096 6.144-8.2944 12.4416-12.5952 18.0224l-0.768 0.9216c-1.3824 1.4848-2.7648 2.8672-4.096 4.1472l-0.6144 0.6144c-0.8192 0.768-1.6896 1.4336-2.5088 2.1504-3.9936 3.3792-8.1408 6.2976-12.4928 8.6016-0.4608 0.256-0.8704 0.6144-1.3312 0.9216-18.0736 9.472-32.0512 5.888-32.768 5.6832a9.728 9.728 0 0 0-2.9696-0.4608c-46.8992 0-52.992-94.8224-53.1968-98.8672-0.1536-2.5088-0.6144-10.1376-10.2912-67.5328 3.1232-30.7712 4.608-59.0848 4.4544-84.9408 0-0.9216 0-1.792-0.0512-2.6624-0.0512-5.1712-0.1536-10.24-0.3584-15.2064-0.1024-2.2016-0.1536-4.352-0.256-6.5024-0.1024-2.2016-0.2048-4.4544-0.3584-6.6048-0.256-3.9424-0.5632-7.8336-0.8704-11.6736l-0.4608-4.352c-0.3584-3.328-0.7168-6.5536-1.1264-9.728-0.1536-1.0752-0.256-2.1504-0.4096-3.2256-0.5632-3.9936-1.1776-7.8848-1.8432-11.7248-0.2048-1.024-0.3584-2.048-0.5632-3.072-0.7168-3.7376-1.4336-7.424-2.2528-11.008-0.0512-0.1536-0.0512-0.3584-0.1024-0.512-12.9024-55.04-21.9136-112.896-25.9072-161.3312 0-0.1024 0-0.256-0.0512-0.3584-0.8192-10.0352-1.4336-19.6096-1.792-28.7232-0.1024-2.048-0.1536-4.0448-0.2048-6.0416-0.1024-3.8912-0.2048-7.7312-0.256-11.4176v-1.024c-0.1536-21.2992 1.2288-38.7072 4.3008-50.3808 0.6144-2.4064 1.28-4.7616 1.9968-7.0656l1.0752-3.4816c0.3584-1.0752 0.6656-2.2016 1.024-3.2768 0.4096-1.28 0.8704-2.56 1.3312-3.7888 0.3072-0.8704 0.6144-1.792 0.9216-2.6112 0.4608-1.1776 0.9216-2.3552 1.3824-3.4816 0.3584-0.8704 0.7168-1.792 1.0752-2.6624 0.4608-1.0752 0.9728-2.1504 1.4336-3.2256 0.4096-0.8704 0.768-1.792 1.1776-2.6624 0.512-1.0752 1.024-2.048 1.536-3.072 0.4096-0.8192 0.8192-1.6896 1.28-2.5088 0.512-0.9728 1.0752-1.9456 1.6384-2.9184l1.3824-2.4576c0.5632-0.9216 1.1264-1.8432 1.7408-2.7648 0.512-0.8192 1.024-1.6384 1.536-2.4064 0.5632-0.8704 1.2288-1.7408 1.792-2.6112 0.5632-0.768 1.0752-1.5872 1.6896-2.3552 0.6144-0.8192 1.28-1.6384 1.8944-2.4576 0.6144-0.768 1.1776-1.5872 1.792-2.304 0.6656-0.8192 1.3312-1.5872 1.9968-2.3552 0.6656-0.768 1.28-1.536 1.9456-2.304 0.6656-0.768 1.3824-1.4848 2.0992-2.2528 0.7168-0.768 1.4336-1.536 2.1504-2.2528 0.7168-0.7168 1.4848-1.4336 2.2528-2.1504 0.768-0.768 1.536-1.4848 2.304-2.2528 0.768-0.7168 1.5872-1.3824 2.3552-2.0992 0.8192-0.7168 1.6384-1.4848 2.5088-2.2016 0.768-0.6656 1.6384-1.3312 2.4576-1.9968 0.9216-0.7168 1.792-1.4848 2.7136-2.2016 0.8192-0.6656 1.6896-1.28 2.5088-1.9456 0.8704-0.6656 1.7408-1.3312 2.6624-1.9968 9.6768-5.0688 20.3264-8.8064 31.6416-11.1104 144.5888-29.6448 296.448-0.3072 297.5232-0.0512 14.9504 3.584 28.3648 10.0864 39.68 19.2 2.7136 2.304 5.2224 4.6592 7.6288 6.9632 0.3072 0.3072 0.6656 0.6144 0.9728 0.9728 2.304 2.304 4.5056 4.608 6.5536 7.0144 0.2048 0.256 0.4608 0.512 0.6656 0.8192 13.4144 16.3328 23.7568 38.1952 30.72 64.9216 1.6384 8.0896 2.6624 18.2272 3.072 30.0032 0 0.6656 0.0512 1.28 0.0512 1.9456 0 0.8704 0.0512 1.7408 0.0512 2.6624 0.0512 1.3824 0.0512 2.7648 0.1024 4.1984v1.0752c0.3584 45.2096-6.8096 110.1312-19.6096 175.2064 0.0512 0.256 0 0.4608-0.0512 0.6144z m243.2512-5.9904c-18.7392 28.4672-59.392 119.6032-78.9504 163.4304-3.7888 8.448-6.7072 15.0016-8.3968 18.7392l-1.536 3.3792c-10.3424 22.6816-37.8368 82.944-65.7408 104.0896-37.0688 28.0576-49.5616 48.9984-53.7088 58.9312-1.1776 2.8672-2.9696 5.2224-4.4032 6.7584-0.4096-1.1264-0.8704-2.6624-1.28-4.8128l-0.8192-3.9424c-17.7664-87.5008-26.1632-164.5568-24.832-225.024v-0.4608c0.1024-5.1712 0.3072-10.24 0.5632-15.2064 0.0512-0.6144 0.0512-1.1776 0.1024-1.792 0.256-4.5056 0.5632-8.9088 0.9728-13.2096 0.1024-1.1776 0.256-2.304 0.3584-3.4304 0.3584-3.6864 0.768-7.3728 1.2288-10.9056 0.256-2.048 0.5632-3.9936 0.8704-5.9392 0.4096-2.6112 0.768-5.2224 1.1776-7.7312 0.8192-4.5056 1.6896-8.8576 2.6624-13.0048l2.304-10.0352c0.1536-0.6144 0.256-1.2288 0.4096-1.8432l1.8432-8.448 0.1536-0.7168c20.48-95.1808 29.0816-191.8464 20.992-238.7456-0.1024-0.4608-0.1536-0.8704-0.256-1.28-0.1536-0.9728-0.3584-1.9456-0.512-2.8672 0-0.1024-0.0512-0.2048-0.0512-0.3072-0.3584-1.7408-0.7168-3.3792-1.1264-4.9152-7.3216-27.648-17.6128-48.896-32.8704-67.2256-0.4096-0.512-0.8192-1.0752-1.2288-1.6384-0.9216-1.0752-1.8432-2.0992-2.816-3.1232-0.3072-0.3072-0.5632-0.6144-0.8704-0.9728-2.2528-2.4576-4.6592-4.8128-7.168-7.2192-0.2048-0.2048-0.4096-0.4608-0.6656-0.6656 11.264 0.5632 24.8832 4.3008 35.84 15.872 7.68 8.1408 187.136 198.5536 206.3872 214.8864 13.568 11.5712 31.232 39.168 11.3664 69.376z" fill="#311F1B" p-id="13691"></path></svg>